
<svg version="1.1" id="Layer_2" xmlns="http://www.w3.org/2000/svg" xmlns:xlink="http://www.w3.org/1999/xlink" x="0px" y="0px"
	 viewBox="0 0 1000 1000" style="enable-background:new 0 0 1000 1000;" xml:space="preserve">

<defs>
<style type="text/css">

	.st9{fill:none;stroke:#000000;stroke-width:5;stroke-linecap:round;stroke-linejoin:round;stroke-miterlimit:10;}
.st9 {
stroke-dasharray: 2000;
stroke-offset:0;
-webkitanimation: dash 5s linear forwards;
-o-animation: dash 5s linear forwards;
-moz-animation: dash 5s linear forwards;
animation: dash 5s linear forwards;
}

@-webkit-keyframes dash{
from{
stroke-dashoffset: 2000;
}
to{
stroke-dashoffset: 0;
}
}
</style>
</defs>

<path class="st9" d="M562.853,682.079c0,5.694-4.379,10.311-9.779,10.311H430.507c-5.401,0-9.779-4.616-9.779-10.311l0,0
	c0-5.693,4.378-10.31,9.779-10.31h122.566C558.474,671.77,562.853,676.386,562.853,682.079L562.853,682.079z M562.853,711.812
	c0-5.693-4.379-10.31-9.779-10.31H430.507c-5.401,0-9.779,4.616-9.779,10.31l0,0c0,5.695,4.378,10.311,9.779,10.311h122.566
	C558.474,722.123,562.853,717.508,562.853,711.812L562.853,711.812z M562.853,741.904c0-5.693-4.379-10.31-9.779-10.31H430.507
	c-5.401,0-9.779,4.616-9.779,10.31l0,0c0,5.695,4.378,10.311,9.779,10.311h122.566C558.474,752.215,562.853,747.6,562.853,741.904
	L562.853,741.904z M531.924,771.172c0-5.693-2.581-10.31-5.767-10.31h-72.28c-3.185,0-5.767,4.616-5.767,10.31l0,0
	c0,5.694,2.582,10.311,5.767,10.311h72.28C529.343,781.482,531.924,776.866,531.924,771.172L531.924,771.172z M459.379,526.054
	c-8.492,0-15.376,7.258-15.376,16.21c0,8.953,6.884,16.212,15.376,16.212s15.376-7.259,15.376-16.212
	C474.755,533.312,467.871,526.054,459.379,526.054z M490.017,526.054c-8.492,0-15.376,7.258-15.376,16.21
	c0,8.953,6.884,16.212,15.376,16.212s15.376-7.259,15.376-16.212C505.394,533.312,498.509,526.054,490.017,526.054z M520.77,526.054
	c-8.492,0-15.376,7.258-15.376,16.21c0,8.953,6.884,16.212,15.376,16.212s15.377-7.259,15.377-16.212
	C536.146,533.312,529.262,526.054,520.77,526.054z M485.535,657.907c0,3.017,2.32,5.463,5.182,5.463l0,0
	c2.861,0,5.18-2.446,5.18-5.463v-94.135c0-3.017-2.319-5.462-5.18-5.462l0,0c-2.862,0-5.182,2.445-5.182,5.462V657.907z
	 M495.897,278.187c-18.436,0.059-36.856,2.183-54.867,6.33c-30.863,7.105-63.063,18.98-85.095,43.961
	c-22.838,25.897-31.182,63.179-29.033,97.734c0.608,9.787,2.333,19.197,4.363,28.741c1.923,9.037,3.333,18.259,6.514,26.914
	c8.974,24.413,26.213,43.53,38.812,65.723c13.182,23.22,20.716,50.33,26.911,76.406c2.259,9.506,4.885,18.881,6.763,28.488
	c0.477,2.434,0.926,4.873,1.362,7.314c0.161,0.901,0.138,2.698,0.605,3.453c0.565,0.909,1.656,0.749,2.854,0.859
	c4.606,0.426,9.227,0.67,13.85,0.793c18.523,0.496,37.036-0.952,55.56-0.534h6.221c18.523-0.418,37.037,1.03,55.561,0.534
	c4.622-0.123,9.243-0.367,13.849-0.793c1.198-0.11,2.29,0.05,2.854-0.859c0.468-0.755,0.445-2.552,0.606-3.453
	c0.436-2.441,0.885-4.881,1.361-7.314c1.878-9.607,4.504-18.982,6.763-28.488c4.345-18.287,9.794-36.443,16.4-53.969
	c12.133-32.183,37.503-56.007,49.322-88.16c3.182-8.655,4.592-17.877,6.515-26.915c2.031-9.544,3.755-18.955,4.363-28.741
	c2.147-34.555-6.194-71.836-29.033-97.734c-22.031-24.981-54.231-36.856-85.094-43.961c-18.013-4.147-36.432-6.261-54.868-6.33"/>
</svg>
