
<svg version="1.1" id="Layer_2" xmlns="http://www.w3.org/2000/svg" xmlns:xlink="http://www.w3.org/1999/xlink" x="0px" y="0px"
	viewBox="0 0 1000 1000" style="enable-background:new 0 0 1000 1000;" xml:space="preserve">


<defs>
<style type="text/css">

	.st7{fill:none;stroke:#000000;stroke-width:5;stroke-linecap:round;stroke-linejoin:round;stroke-miterlimit:10;}
.st7 {
stroke-dasharray: 2000;
stroke-offset:0;
-webkitanimation: dash 5s linear forwards;
-o-animation: dash 5s linear forwards;
-moz-animation: dash 5s linear forwards;
animation: dash 5s linear forwards;
}

@-webkit-keyframes dash{
from{
stroke-dashoffset: 2000;
}
to{
stroke-dashoffset: 0;
}
}
</style>
</defs>

<path class="st7" d="M392.552,477.141c3.761-4.561,12.676-9.444,15.734-10.926c9.572-4.637,20.279-7.198,30.53-9.758
	c29.166-7.283,59.769-10.867,89.456-4.576c11.803,2.501,23.416,6.045,34.557,10.736c6.025,2.538,21.754,7.294,24.875,13.736
	c5.988,13.117-5.859,15.058-15.846,14.837c-16.486-0.363-32.988-0.777-49.497-1.017c-35.095-0.509-70.24,0.812-105.293,0.46
	c-6.314-0.062-11.976-0.743-18.226-0.142c-6.326,0.609-8.387-2.368-7.99-9.833C390.91,479.558,391.547,478.36,392.552,477.141z
	 M397.804,532.38c-17.925,0-32.456,14.531-32.456,32.457c0,17.924,14.531,32.455,32.456,32.455s32.456-14.531,32.456-32.455
	C430.26,546.911,415.729,532.38,397.804,532.38z M667,532.381c-17.924,0-32.455,14.531-32.455,32.457
	c0,17.924,14.531,32.455,32.455,32.455c17.926,0,32.457-14.531,32.457-32.455C699.457,546.912,684.926,532.381,667,532.381z
	 M605.479,470.718c-23.791-13.062-48.513-24.702-74.548-32.549c-20.919-6.305-45.918-4.268-67.319-1.938
	c-34.717,3.779-66.775,20.537-97.014,37.19c-14.035,1.461-28.792-1.41-42.575,0.957c-15.398,2.646-28.872,16.89-30.758,32.458
	c-0.003,0.023-2.667,22.01-2.667,41.333c0,19.333,10,20.667,10,20.667h53.333c0,0-7.333-48,43.333-48.667
	s45.333,48.667,45.333,48.667h180.667c0,0-6-49.333,43.334-49.333s43.333,49.333,43.333,49.333s44-4.667,43.333-8s6.667-22,0-37.333
	s-30.666-30-36-32.667s-96.666-10-96.666-10C617.486,480.586,608.597,472.43,605.479,470.718z"/>
</svg>
