<svg version="1.1" id="Layer_6" xmlns="http://www.w3.org/2000/svg" xmlns:xlink="http://www.w3.org/1999/xlink" x="0px" y="0px"
	 viewBox="0 0 1000 1000" style="enable-background:new 0 0 1000 1000;" xml:space="preserve">


<defs>
<style type="text/css">

	.st5{fill:none;stroke:black;stroke-width:5;stroke-linecap:round;stroke-linejoin:round;stroke-miterlimit:10;}

.st5 {
stroke-dasharray: 2000;
stroke-offset:0;
-webkitanimation: dash 5s linear forwards;
-o-animation: dash 5s linear forwards;
-moz-animation: dash 5s linear forwards;
animation: dash 5s linear forwards;
}

@-webkit-keyframes dash{
from{
stroke-dashoffset: 2000;
}
to{
stroke-dashoffset: 0;
}
}
</style>
</defs>


<path class="st5" d="M650.229,334.486c0,6.627-5.373,12-12,12h-360c-6.627,0-12-5.373-12-12v-19.152c0-6.627,5.373-12,12-12h360
	c6.627,0,12,5.373,12,12V334.486z M569.961,312.91c-6.627,0-12,5.373-12,12s5.373,12,12,12s12-5.373,12-12
	S576.588,312.91,569.961,312.91z M533.963,312.91c-6.627,0-12,5.373-12,12s5.373,11.999,12,11.999s12-5.372,12-11.999
	S540.59,312.91,533.963,312.91z M605.959,312.911c-6.627,0-12,5.373-12,12s5.373,11.999,12,11.999s12-5.372,12-11.999
	S612.586,312.911,605.959,312.911z M329.973,601.473l10.5,89.996h25.499l9.846-89.996 M398.764,600.473l10.5,89.996h25.499
	l9.846-89.996 M466.921,464.617V683.95c0,0,7.333,14.666,13.333,0s33.333-160,0-219.333
	C480.255,464.617,474.254,447.951,466.921,464.617z M304.974,656.971v50.997h305.985v-50.997 M626.958,398.984
	c0-6.627-5.372-12-12-12H302.975c-6.627,0-12,5.373-12,12v313.483c0,6.627,5.373,12,12,12h311.983c6.628,0,12-5.373,12-12V398.984z
	 M650.228,736.426c0,6.627-5.373,12-12,12h-360c-6.628,0-12-5.373-12-12V375.577c0-6.627,5.372-12,12-12h360c6.627,0,12,5.373,12,12
	V736.426z M536.334,682.469c9.334,6.802-2,9-2,9h41.333c0,0-14-2.469,0-9S594.334,625,594.334,625h-76.667
	C514.334,625,527,675.667,536.334,682.469z"/>
</svg>