
<svg version="1.1" id="Layer_2" xmlns="http://www.w3.org/2000/svg" xmlns:xlink="http://www.w3.org/1999/xlink" x="0px" y="0px"
	 viewBox="0 0 1000 1000" style="enable-background:new 0 0 1000 1000;" xml:space="preserve">

<defs> 
<style type="text/css">

	.st4{fill:none;stroke:#000000;stroke-width:5;stroke-linejoin:round;stroke-miterlimit:10;}
.st4 {
stroke-dasharray: 2000;
stroke-offset:0;
-webkitanimation: dash 5s linear forwards;
-o-animation: dash 5s linear forwards;
-moz-animation: dash 5s linear forwards;
animation: dash 5s linear forwards;
}

@-webkit-keyframes dash{
from{
stroke-dashoffset: 2000;
}
to{
stroke-dashoffset: 0;
}
}
</style>
</defs>

<path class="st4" d="M635.421,721.403c0,6.628-5.372,12-12,12H293.035c-6.627,0-12-5.372-12-12v-332.14c0-6.627,5.373-12,12-12
	h330.386c6.628,0,12,5.373,12,12V721.403z M635.421,317.333c0-6.627-5.372-12-12-12H293.035c-6.627,0-12,5.373-12,12v32.14
	c0,6.627,5.373,12,12,12h330.386c6.628,0,12-5.373,12-12V317.333z M458.229,440.053c-63.465,0-114.913,50.27-114.913,112.28
	c0,62.012,51.448,112.281,114.913,112.281c63.464,0,114.912-50.27,114.912-112.281C573.141,490.322,521.692,440.053,458.229,440.053
	z M567.94,323.1c-5.69,0-10.304,4.613-10.304,10.304c0,5.69,4.613,10.304,10.304,10.304s10.304-4.613,10.304-10.304
	C578.244,327.713,573.631,323.1,567.94,323.1z M604.94,323.1c-5.69,0-10.304,4.613-10.304,10.304c0,5.69,4.613,10.304,10.304,10.304
	s10.304-4.613,10.304-10.304C615.244,327.713,610.631,323.1,604.94,323.1z M377.5,563 M377.5,331.1c0-6.627-5.373-12-12-12h-58.025
	c-6.627,0-12,5.373-12,12v5.386c0,6.627,5.373,12,12,12H365.5c6.627,0,12-5.373,12-12V331.1z M527,500c0,0-49,43,0,96"/>
</svg>
