
<svg version="1.1" id="Layer_1" xmlns="http://www.w3.org/2000/svg" xmlns:xlink="http://www.w3.org/1999/xlink" x="0px" y="0px"
	 viewBox="0 0 1000 1000" style="enable-background:new 0 0 1000 1000;" xml:space="preserve">


<defs> 
<style type="text/css">

	.st6{fill:none;stroke:#000000;stroke-width:5;stroke-linecap:round;stroke-linejoin:round;stroke-miterlimit:10;}
.st6 {
stroke-dasharray: 2200;
stroke-offset:0;
-webkitanimation: dash 5s linear forwards;
-o-animation: dash 5s linear forwards;
-moz-animation: dash 5s linear forwards;
animation: dash 5s linear forwards;
}

@-webkit-keyframes dash{
from{
stroke-dashoffset: 2000;
}
to{
stroke-dashoffset: 0;
}
}
</style>
</defs>


<path class="st6" d="M726.648,442.175c0,129.835-105.252,235.087-235.087,235.087S256.474,572.011,256.474,442.175
	s105.252-235.087,235.087-235.087S726.648,312.34,726.648,442.175z M492.562,251.316c-107.065,0-193.859,86.794-193.859,193.859
	s86.794,193.859,193.859,193.859s193.859-86.794,193.859-193.859S599.627,251.316,492.562,251.316z M795.069,182.164
	c-19.687,45.923-25.574,97.396-33.274,146.374c-3.786,24.081-3.895,47.932-6.419,72.063c-2.385,22.79-3.395,36.085,15.227,52.263
	c10.287,8.938,19.493,28.854,19.206,42.378c-0.298,14.041-7.073,26.467-8.454,39.627c-1.817,17.328,0.064,35.982-0.002,53.428
	c-0.08,20.646,0.477,41.287,0.426,61.932c-0.035,14.123-5.16,34.795,6.578,45.309c8.412,7.533,22.711,8.34,29.745-1.344
	c9.261-12.754,4.347-38.688,4.394-52.67c0.168-50.758,0.024-101.52,0.021-152.278c-0.008-113.226-0.023-226.452-0.023-339.678
	C807.88,149.58,799.622,171.543,795.069,182.164z M222.636,149.568l3.504,147.087h-15.183l-0.584-147.087h-10.511l-1.752,148.294
	l-12.848,0.604l-0.583-148.898h-12.263v147.69H155.48l4.088-144.275L144.5,151.46l-15.112,122.321c0,0,0,28.594,15.112,44.48
	c29.776,31.301,34.698,78.455,21.16,119.132c-10.582,31.784-0.003,239.889-0.003,239.889s25.411,55.328,53.935-1.891
	c0,0,10.756-208.106-0.004-239.89c-13.766-40.678-8.76-87.832,21.519-119.132c15.368-15.886,15.368-44.481,15.368-44.481
	l-15.368-122.321H222.636z"/>
</svg>
