
<svg version="1.1" id="Layer_2" xmlns="http://www.w3.org/2000/svg" xmlns:xlink="http://www.w3.org/1999/xlink" x="0px" y="0px"
	 viewBox="0 0 1000 1000" style="enable-background:new 0 0 1000 1000;" xml:space="preserve">

<defs>
<style type="text/css">

	.st1{fill:none;stroke:#FFFFFF;stroke-width:5;stroke-linejoin:round;stroke-miterlimit:10;}
.st1 {
stroke-dasharray: 2000;
stroke-offset:0;
-webkitanimation: dash 3s linear forwards;
-o-animation: dash 3s linear forwards;
-moz-animation: dash 3s linear forwards;
animation: dash 3s linear forwards;
}

@-webkit-keyframes dash{
from{
stroke-dashoffset: 2000;
}
to{
stroke-dashoffset: 0;
}
}
</style>
</defs>

<path class="st1" d="M140.333,174.333c0,0,4.667,174.667,0,184s-20,6.667-20,6.667V167.666
	C135.667,161,140.333,174.333,140.333,174.333z M142.407,348.406c0,0,19.26-1.407,32.593-0.073s15.333-16,15.333-16
	s1.333-123.333,0-134.667S177,183.644,177,183.644h-36.431 M190.926,304.333c28.176-18.082,55.566-37.338,84.849-53.657
	c43.562-24.277,101.387-33.841,142.504,1.027c10.145,8.602,19.107,20.539,24.724,32.636c4.538,9.774,4.876,17.46,4.319,27.792
	c20.902,2.841,43.907,0.203,65.012,0.203c-3.333-58.667-31.334-98-72.001-128.689c-36.408-27.475-91.9-25.649-133.925-13.785
	c-31.269,8.828-62.451,27.028-90.962,42.387c-8.19,4.412-16.15,9.354-24.521,13.42 M531.667,326
	c0.015-0.104,1.612-11.462-10.333-12.553c0,0-84.997,0-85,0c-6.303,0-10.746,4.419-11.715,10.494
	c-0.754,4.727,2.697,12.007-3.606,14.019c-4.124,1.313-8.053,3.174-11.368,5.98c-13.105,11.099-23.342,26.627-31.311,41.726
	c0,0,197.867,0,198,0c-0.696,0-6.744-14.219-7.548-15.573c-3.346-5.634-7.38-10.898-12.085-15.42
	c-3.823-3.674-7.847-6.931-12.103-10.089c-3.221-2.39-9.996-4.312-12.16-7.519c-0.021-0.03-0.039-0.059-0.058-0.089
	C531.133,334.923,531.332,328.338,531.667,326z M603.668,423.994c1.333-6.664,1.997-11.997-4.668-22.66
	c-6.666-10.665-19.328-13.999-19.333-14c-6.798-1.79-16.527-0.085-23.467,0c-35.456,0.432-70.962,0.16-106.415-0.264
	c-16.921-0.203-33.718,0.907-50.64,0.126c-15.801-0.729-39.028,1.338-44.813,20.14c-2.666,8.665-3.999,11.332,0.001,24.664
	c4,13.333,19.333,18,19.333,18c9.103,0,18.211-0.055,27.316-0.005c39.088,0.213,78.222,0.392,117.307-0.052
	c16.384-0.186,32.782-1.047,49.16-0.159c5.942,0.322,11.437-0.17,16.282-1.68C593.725,444.989,600.958,437.545,603.668,423.994z
	 M478.173,476c-26.956,44.483-58.352,86.288-88.28,128.876c-58.308,82.973-145.931,231.558-44.891,319.126
	c42.034,36.43,101.382,64.055,157.74,59.468C559.449,978.854,612.049,937.41,639,888c24-44,31-105,0-165s-68-113-77-127
	S478.346,483,478.173,476z"/>
</svg>
