
<svg version="1.1" id="Layer_3" xmlns="http://www.w3.org/2000/svg" xmlns:xlink="http://www.w3.org/1999/xlink" x="0px" y="0px"
	  viewBox="0 0 1000 1000" style="enable-background:new 0 0 1000 1000;" xml:space="preserve">

<defs>
<style type="text/css">

	.st2{fill:none;stroke:black;stroke-width:5;stroke-linejoin:round;stroke-miterlimit:10;}
.st2 {
stroke-dasharray: 2000;
stroke-offset:0;
-webkitanimation: dash 5s linear forwards;
-o-animation: dash 5s linear forwards;
-moz-animation: dash 5s linear forwards;
animation: dash 5s linear forwards;
}

@-webkit-keyframes dash{
from{
stroke-dashoffset: 2000;
}
to{
stroke-dashoffset: 0;
}
}
</style>
</defs>


<path class="st2" d="M109,155h18c0,0,21.333-33.333,44,0h16.569c0,0,10.569,8.96,0,19.813h-17.64c0,0-20.907,32.667-43.12,0
	l-17.81-0.48C109,174.333,98.333,163,109,155z M42,307h82.333c-1.933,15.467-0.977,32.711,16.069,38.737
	c13.521,4.78,28.991-0.539,31.819-15.897c0.31-1.685,1.532-22.894,0.112-22.84c0.039-0.001,53.334-2,58-0.667
	C235,307.667,241.667,311,247,317.667s5.333,14,5.333,14l1.333,58.667h60.667c0,0,0.667-44-2.667-64.667
	C305.952,290.239,279.886,245,238.999,245c-0.383,0-66.666,0-66.666,0c0-18.941,2.728-47.332-24.666-47.333
	c-26.389,0-24.001,29.301-24.001,47.333c0,0-81.667,0-81.667,0V307z M285.667,406.333c11.6,26.503,28.51,50.111,43.459,74.737
	c7.683,12.655,13.498,26.44,18.232,40.448c7.921,23.436,8.739,49.331-2.285,71.939c-11.13,22.826-35.46,33.67-59.407,37.219
	 M285.667,406.333c-12.604,26.787-30.638,49.927-46.888,74.737c-8.289,12.655-14.562,26.44-19.67,40.448
	c-8.546,23.436-9.429,49.331,2.465,71.939c6.826,12.975,18.064,21.906,30.949,27.89c10.457,4.856,21.999,7.771,33.144,9.329
	 M199,808.666v-58.088 M357.667,807.666v-57.088 M199,752.333c3.282-9.333,12.471-0.666,19.691-1.333c2.625,0,5.907-4,9.189-4
	c3.938,0,7.22,2.667,11.158,2.667c4.595,0,7.877-4,12.472-3.334c3.282,0.667,5.907,5.334,9.846,5.334c3.282,0,6.563-4,9.846-4.667
	c4.594-0.667,6.563,2.667,10.501,3.333c3.938,0,6.564-2,9.846-2.666c5.251,0,5.251,1.333,9.846,2c9.846,1.333,11.815-5.334,21.004-6
	c5.25,0,5.908,3.333,9.846,4c5.908,0.666,3.938-0.667,8.533-1.334C347.999,745,353.906,743,357.845,753 M510.923,786.136
	c-10.864,18.598-135.266,32.186-139.365,27.197c-4.109-5-13.891-5.667-13.891-5.667l-158.667,1c-45.333,26,0,50.667,0,50.667
	s153,0.333,160,0S371.558,854,371.558,854C414.116,869,526,828,526,828s414.97,0,415,0c19.177,0,16.479-28.7,6.443-37.728
	c-11.324-10.187-29.993-4.376-43.591-4.527c-78.744-0.875-157.724-0.256-236.515,0.18c-36.812,0.203-73.625-0.045-110.438,0.069
	c-4.275,0.014-42.936-3.607-45.897,0.026C510.973,786.059,510.945,786.097,510.923,786.136z M188.808,714.641
	c6.148,7.725,16.913,10.334,23.856,1.692c17.677-22.001,43.945-18.473,61.668,1.333c25.226,28.192,61.378,10.906,85.999-7.331
	c9.994-7.402,17.25-22.494,4.115-30.953c-21.003-13.528-33.703,23.067-54.111,21.619c-11.057-0.784-21.947-14.983-30.544-21.162
	c-11.028-7.927-23.35-14.097-37.158-14.684c-19.5-0.829-45.25,12.181-54.963,29.847
	C184.118,701.466,183.737,708.269,188.808,714.641z"/>
</svg>
