
<svg version="1.1" id="Layer_2" xmlns="http://www.w3.org/2000/svg" xmlns:xlink="http://www.w3.org/1999/xlink" x="0px" y="0px"
	viewBox="0 0 1000 1000" style="enable-background:new 0 0 1000 1000;" xml:space="preserve">

<defs>
<style type="text/css">

	.st3{fill:none;stroke:black;stroke-width:5;stroke-linejoin:round;stroke-miterlimit:10;}
	
.st3 {
stroke-dasharray: 2000;
stroke-offset:0;
-webkitanimation: dash 5s linear forwards;
-o-animation: dash 5s linear forwards;
-moz-animation: dash 5s linear forwards;
animation: dash 5s linear forwards;
}

@-webkit-keyframes dash{
from{
stroke-dashoffset: 2000;
}
to{
stroke-dashoffset: 0;
}
}
</style>
</defs>

<path class="st3" d="M635.421,721.403c0,6.628-5.372,12-12,12H293.035c-6.627,0-12-5.372-12-12v-332.14c0-6.627,5.373-12,12-12
	h330.386c6.628,0,12,5.373,12,12V721.403z M635.421,317.333c0-6.627-5.372-12-12-12H293.035c-6.627,0-12,5.373-12,12v32.14
	c0,6.627,5.373,12,12,12h330.386c6.628,0,12-5.373,12-12V317.333z M458.229,440.053c-63.465,0-114.913,50.27-114.913,112.28
	c0,62.012,51.448,112.281,114.913,112.281c63.464,0,114.912-50.27,114.912-112.281C573.141,490.322,521.692,440.053,458.229,440.053
	z M458.228,453.926c-54.901,0-99.408,44.506-99.408,99.408c0,54.9,44.506,99.408,99.408,99.408
	c54.902,0,99.408-44.508,99.408-99.408C557.636,498.432,513.13,453.926,458.228,453.926z M312.614,313.333
	c-10.813,0-19.579,8.428-19.579,18.824c0,10.396,8.766,18.824,19.579,18.824s19.579-8.428,19.579-18.824
	C332.192,321.761,323.427,313.333,312.614,313.333z M355.688,318.48c-5.691,0-10.304,4.613-10.304,10.304
	c0,5.69,4.613,10.304,10.304,10.304c5.69,0,10.304-4.613,10.304-10.304C365.992,323.093,361.378,318.48,355.688,318.48z
	 M392.688,318.48c-5.691,0-10.304,4.613-10.304,10.304c0,5.69,4.613,10.304,10.304,10.304s10.304-4.613,10.304-10.304
	C402.992,323.093,398.379,318.48,392.688,318.48z M377.5,563 M522.256,568.838c-2.441-0.317-4.295-1.156-5.839-2.307
	c-3.173-1.333-5.725-3.658-7.638-6.511c-0.464-0.366-0.919-0.745-1.357-1.144c-3.179,5.688-9.059,9.498-16.569,9.612
	c-6.763,0.104-13.352-2.318-18.154-6.711c-3.612,5.099-8.694,9.083-14.943,8.366c-7.232-0.83-10.971-5.528-14.446-10.762
	c-4.333,7.256-11.503,13.546-20.639,11.438c-4.653-1.073-8.596-3.523-11.138-6.931c-1.284-0.896-2.446-1.943-3.436-3.146
	c-2.229,4.61-5.645,8.191-11.553,9.322c-7.143,1.368-13.599-2.371-16.895-8.333c-1.318-0.855-2.597-1.795-3.833-2.789
	c3.504,42.058,38.721,75.107,81.683,75.107c43.958,0,79.773-34.605,81.84-78.052C536.326,563.065,530.838,569.955,522.256,568.838z"
	/>
</svg>
